<mxfile host="app.diagrams.net" modified="2023-04-07T02:40:31.394Z" agent="Mozilla/5.0 (Macintosh; Intel Mac OS X 10_15_7) AppleWebKit/537.36 (KHTML, like Gecko) Chrome/111.0.0.0 Safari/537.36" etag="yEXlnSvNQc-VPeonB_Qc" version="21.1.2" type="device">
  <diagram name="Page-1" id="IVqVSGv2KLx6jKtq350M">
    <mxGraphModel dx="954" dy="567" grid="1" gridSize="10" guides="1" tooltips="1" connect="1" arrows="1" fold="1" page="1" pageScale="1" pageWidth="850" pageHeight="1100" math="0" shadow="0">
      <root>
        <mxCell id="0" />
        <mxCell id="1" parent="0" />
        <mxCell id="m_yIS0kcz00EE0Y5XQm6-1" value="" style="rounded=0;whiteSpace=wrap;html=1;" vertex="1" parent="1">
          <mxGeometry x="140" y="90" width="120" height="60" as="geometry" />
        </mxCell>
        <mxCell id="m_yIS0kcz00EE0Y5XQm6-2" value="&lt;font style=&quot;font-size: 18px;&quot;&gt;User&lt;/font&gt;" style="text;html=1;strokeColor=none;fillColor=none;align=center;verticalAlign=middle;whiteSpace=wrap;rounded=0;" vertex="1" parent="1">
          <mxGeometry x="170" y="105" width="60" height="30" as="geometry" />
        </mxCell>
        <mxCell id="m_yIS0kcz00EE0Y5XQm6-3" value="" style="rounded=0;whiteSpace=wrap;html=1;" vertex="1" parent="1">
          <mxGeometry x="410" y="90" width="120" height="60" as="geometry" />
        </mxCell>
        <mxCell id="m_yIS0kcz00EE0Y5XQm6-4" value="&lt;font style=&quot;font-size: 18px;&quot;&gt;TVM&lt;/font&gt;" style="text;html=1;strokeColor=none;fillColor=none;align=center;verticalAlign=middle;whiteSpace=wrap;rounded=0;" vertex="1" parent="1">
          <mxGeometry x="440" y="105" width="60" height="30" as="geometry" />
        </mxCell>
        <mxCell id="m_yIS0kcz00EE0Y5XQm6-5" value="" style="rounded=0;whiteSpace=wrap;html=1;" vertex="1" parent="1">
          <mxGeometry x="680" y="90" width="120" height="60" as="geometry" />
        </mxCell>
        <mxCell id="m_yIS0kcz00EE0Y5XQm6-6" value="&lt;font style=&quot;font-size: 18px;&quot;&gt;Bank&lt;/font&gt;" style="text;html=1;strokeColor=none;fillColor=none;align=center;verticalAlign=middle;whiteSpace=wrap;rounded=0;" vertex="1" parent="1">
          <mxGeometry x="710" y="105" width="60" height="30" as="geometry" />
        </mxCell>
        <mxCell id="m_yIS0kcz00EE0Y5XQm6-7" value="" style="rounded=0;whiteSpace=wrap;html=1;" vertex="1" parent="1">
          <mxGeometry x="940" y="90" width="120" height="60" as="geometry" />
        </mxCell>
        <mxCell id="m_yIS0kcz00EE0Y5XQm6-8" value="&lt;font style=&quot;font-size: 18px;&quot;&gt;Server&lt;/font&gt;" style="text;html=1;strokeColor=none;fillColor=none;align=center;verticalAlign=middle;whiteSpace=wrap;rounded=0;" vertex="1" parent="1">
          <mxGeometry x="970" y="105" width="60" height="30" as="geometry" />
        </mxCell>
        <mxCell id="m_yIS0kcz00EE0Y5XQm6-9" value="" style="endArrow=none;dashed=1;html=1;rounded=0;" edge="1" parent="1">
          <mxGeometry width="50" height="50" relative="1" as="geometry">
            <mxPoint x="200" y="240" as="sourcePoint" />
            <mxPoint x="200" y="150" as="targetPoint" />
          </mxGeometry>
        </mxCell>
        <mxCell id="m_yIS0kcz00EE0Y5XQm6-10" value="" style="endArrow=none;dashed=1;html=1;rounded=0;" edge="1" parent="1">
          <mxGeometry width="50" height="50" relative="1" as="geometry">
            <mxPoint x="469.5" y="240" as="sourcePoint" />
            <mxPoint x="469.5" y="150" as="targetPoint" />
          </mxGeometry>
        </mxCell>
        <mxCell id="m_yIS0kcz00EE0Y5XQm6-11" value="" style="endArrow=none;dashed=1;html=1;rounded=0;exitX=0.5;exitY=0;exitDx=0;exitDy=0;" edge="1" parent="1" source="m_yIS0kcz00EE0Y5XQm6-16">
          <mxGeometry width="50" height="50" relative="1" as="geometry">
            <mxPoint x="739.5" y="240" as="sourcePoint" />
            <mxPoint x="739.5" y="150" as="targetPoint" />
          </mxGeometry>
        </mxCell>
        <mxCell id="m_yIS0kcz00EE0Y5XQm6-12" value="" style="endArrow=none;dashed=1;html=1;rounded=0;" edge="1" parent="1">
          <mxGeometry width="50" height="50" relative="1" as="geometry">
            <mxPoint x="1000" y="1170" as="sourcePoint" />
            <mxPoint x="999.5" y="150" as="targetPoint" />
          </mxGeometry>
        </mxCell>
        <mxCell id="m_yIS0kcz00EE0Y5XQm6-14" value="" style="rounded=0;whiteSpace=wrap;html=1;" vertex="1" parent="1">
          <mxGeometry x="190" y="240" width="20" height="930" as="geometry" />
        </mxCell>
        <mxCell id="m_yIS0kcz00EE0Y5XQm6-15" value="" style="rounded=0;whiteSpace=wrap;html=1;" vertex="1" parent="1">
          <mxGeometry x="460" y="240" width="20" height="930" as="geometry" />
        </mxCell>
        <mxCell id="m_yIS0kcz00EE0Y5XQm6-16" value="" style="rounded=0;whiteSpace=wrap;html=1;" vertex="1" parent="1">
          <mxGeometry x="730" y="590" width="20" height="580" as="geometry" />
        </mxCell>
        <mxCell id="m_yIS0kcz00EE0Y5XQm6-18" value="" style="endArrow=classic;html=1;rounded=0;entryX=-0.05;entryY=0.054;entryDx=0;entryDy=0;entryPerimeter=0;" edge="1" parent="1" target="m_yIS0kcz00EE0Y5XQm6-15">
          <mxGeometry width="50" height="50" relative="1" as="geometry">
            <mxPoint x="210" y="290" as="sourcePoint" />
            <mxPoint x="260" y="240" as="targetPoint" />
          </mxGeometry>
        </mxCell>
        <mxCell id="m_yIS0kcz00EE0Y5XQm6-19" value="" style="endArrow=classic;html=1;rounded=0;entryX=-0.15;entryY=0.06;entryDx=0;entryDy=0;entryPerimeter=0;" edge="1" parent="1">
          <mxGeometry width="50" height="50" relative="1" as="geometry">
            <mxPoint x="210" y="411" as="sourcePoint" />
            <mxPoint x="457" y="410" as="targetPoint" />
          </mxGeometry>
        </mxCell>
        <mxCell id="m_yIS0kcz00EE0Y5XQm6-20" value="" style="endArrow=classic;html=1;rounded=0;entryX=-0.15;entryY=0.06;entryDx=0;entryDy=0;entryPerimeter=0;" edge="1" parent="1">
          <mxGeometry width="50" height="50" relative="1" as="geometry">
            <mxPoint x="213" y="531" as="sourcePoint" />
            <mxPoint x="460" y="530" as="targetPoint" />
          </mxGeometry>
        </mxCell>
        <mxCell id="m_yIS0kcz00EE0Y5XQm6-22" value="&lt;font style=&quot;font-size: 18px;&quot;&gt;Request Recharge Card&lt;/font&gt;" style="text;html=1;strokeColor=none;fillColor=none;align=center;verticalAlign=middle;whiteSpace=wrap;rounded=0;" vertex="1" parent="1">
          <mxGeometry x="240" y="250" width="200" height="30" as="geometry" />
        </mxCell>
        <mxCell id="m_yIS0kcz00EE0Y5XQm6-23" value="" style="html=1;labelBackgroundColor=#ffffff;startArrow=none;startFill=0;startSize=6;endArrow=classic;endFill=1;endSize=6;jettySize=auto;orthogonalLoop=1;strokeWidth=1;dashed=1;fontSize=14;rounded=0;" edge="1" parent="1">
          <mxGeometry width="60" height="60" relative="1" as="geometry">
            <mxPoint x="460" y="350" as="sourcePoint" />
            <mxPoint x="210" y="350" as="targetPoint" />
          </mxGeometry>
        </mxCell>
        <mxCell id="m_yIS0kcz00EE0Y5XQm6-24" value="&lt;font style=&quot;font-size: 18px;&quot;&gt;Recharge Amount&lt;/font&gt;" style="text;html=1;strokeColor=none;fillColor=none;align=center;verticalAlign=middle;whiteSpace=wrap;rounded=0;" vertex="1" parent="1">
          <mxGeometry x="240" y="310" width="200" height="30" as="geometry" />
        </mxCell>
        <mxCell id="m_yIS0kcz00EE0Y5XQm6-25" value="&lt;font style=&quot;font-size: 18px;&quot;&gt;Selects Amount&lt;/font&gt;" style="text;html=1;strokeColor=none;fillColor=none;align=center;verticalAlign=middle;whiteSpace=wrap;rounded=0;" vertex="1" parent="1">
          <mxGeometry x="240" y="370" width="200" height="30" as="geometry" />
        </mxCell>
        <mxCell id="m_yIS0kcz00EE0Y5XQm6-26" value="" style="html=1;labelBackgroundColor=#ffffff;startArrow=none;startFill=0;startSize=6;endArrow=classic;endFill=1;endSize=6;jettySize=auto;orthogonalLoop=1;strokeWidth=1;dashed=1;fontSize=14;rounded=0;" edge="1" parent="1">
          <mxGeometry width="60" height="60" relative="1" as="geometry">
            <mxPoint x="460" y="470" as="sourcePoint" />
            <mxPoint x="210" y="470" as="targetPoint" />
          </mxGeometry>
        </mxCell>
        <mxCell id="m_yIS0kcz00EE0Y5XQm6-27" value="&lt;font style=&quot;font-size: 18px;&quot;&gt;Request Payment&lt;/font&gt;" style="text;html=1;strokeColor=none;fillColor=none;align=center;verticalAlign=middle;whiteSpace=wrap;rounded=0;" vertex="1" parent="1">
          <mxGeometry x="240" y="430" width="200" height="30" as="geometry" />
        </mxCell>
        <mxCell id="m_yIS0kcz00EE0Y5XQm6-28" value="&lt;font style=&quot;font-size: 18px;&quot;&gt;Selects Mode of Payment&lt;/font&gt;" style="text;html=1;strokeColor=none;fillColor=none;align=center;verticalAlign=middle;whiteSpace=wrap;rounded=0;" vertex="1" parent="1">
          <mxGeometry x="240" y="490" width="210" height="30" as="geometry" />
        </mxCell>
        <mxCell id="m_yIS0kcz00EE0Y5XQm6-29" value="" style="endArrow=classic;html=1;rounded=0;entryX=-0.15;entryY=0.06;entryDx=0;entryDy=0;entryPerimeter=0;" edge="1" parent="1">
          <mxGeometry width="50" height="50" relative="1" as="geometry">
            <mxPoint x="210" y="601" as="sourcePoint" />
            <mxPoint x="457" y="600" as="targetPoint" />
          </mxGeometry>
        </mxCell>
        <mxCell id="m_yIS0kcz00EE0Y5XQm6-30" value="&lt;font style=&quot;font-size: 18px;&quot;&gt;Enter Credentials&lt;/font&gt;" style="text;html=1;strokeColor=none;fillColor=none;align=center;verticalAlign=middle;whiteSpace=wrap;rounded=0;" vertex="1" parent="1">
          <mxGeometry x="240" y="560" width="210" height="30" as="geometry" />
        </mxCell>
        <mxCell id="m_yIS0kcz00EE0Y5XQm6-31" value="" style="endArrow=classic;html=1;rounded=0;entryX=-0.15;entryY=0.06;entryDx=0;entryDy=0;entryPerimeter=0;" edge="1" parent="1">
          <mxGeometry width="50" height="50" relative="1" as="geometry">
            <mxPoint x="483" y="631" as="sourcePoint" />
            <mxPoint x="730" y="630" as="targetPoint" />
          </mxGeometry>
        </mxCell>
        <mxCell id="m_yIS0kcz00EE0Y5XQm6-32" value="&lt;font style=&quot;font-size: 18px;&quot;&gt;Request Bank to Authorize Payment&lt;/font&gt;" style="text;html=1;strokeColor=none;fillColor=none;align=center;verticalAlign=middle;whiteSpace=wrap;rounded=0;" vertex="1" parent="1">
          <mxGeometry x="500" y="590" width="210" height="30" as="geometry" />
        </mxCell>
        <mxCell id="m_yIS0kcz00EE0Y5XQm6-33" value="" style="html=1;labelBackgroundColor=#ffffff;startArrow=none;startFill=0;startSize=6;endArrow=classic;endFill=1;endSize=6;jettySize=auto;orthogonalLoop=1;strokeWidth=1;dashed=1;fontSize=14;rounded=0;" edge="1" parent="1">
          <mxGeometry width="60" height="60" relative="1" as="geometry">
            <mxPoint x="730" y="690" as="sourcePoint" />
            <mxPoint x="480" y="690" as="targetPoint" />
          </mxGeometry>
        </mxCell>
        <mxCell id="m_yIS0kcz00EE0Y5XQm6-34" value="&lt;font style=&quot;font-size: 18px;&quot;&gt;Bank Confirms Authentication&lt;/font&gt;" style="text;html=1;strokeColor=none;fillColor=none;align=center;verticalAlign=middle;whiteSpace=wrap;rounded=0;" vertex="1" parent="1">
          <mxGeometry x="510" y="650" width="210" height="30" as="geometry" />
        </mxCell>
        <mxCell id="m_yIS0kcz00EE0Y5XQm6-36" value="&lt;font style=&quot;font-size: 14px;&quot;&gt;paymentConfirmation()&lt;/font&gt;" style="text;html=1;strokeColor=none;fillColor=none;align=center;verticalAlign=middle;whiteSpace=wrap;rounded=0;" vertex="1" parent="1">
          <mxGeometry x="840" y="680" width="80" height="10" as="geometry" />
        </mxCell>
        <mxCell id="m_yIS0kcz00EE0Y5XQm6-37" value="" style="curved=1;endArrow=classic;html=1;rounded=0;entryX=1.1;entryY=0.309;entryDx=0;entryDy=0;entryPerimeter=0;" edge="1" parent="1" target="m_yIS0kcz00EE0Y5XQm6-16">
          <mxGeometry width="50" height="50" relative="1" as="geometry">
            <mxPoint x="750" y="720" as="sourcePoint" />
            <mxPoint x="770" y="760" as="targetPoint" />
            <Array as="points">
              <mxPoint x="770" y="700" />
              <mxPoint x="800" y="700" />
              <mxPoint x="810" y="700" />
              <mxPoint x="830" y="700" />
              <mxPoint x="860" y="720" />
            </Array>
          </mxGeometry>
        </mxCell>
        <mxCell id="m_yIS0kcz00EE0Y5XQm6-38" value="" style="html=1;labelBackgroundColor=#ffffff;startArrow=none;startFill=0;startSize=6;endArrow=classic;endFill=1;endSize=6;jettySize=auto;orthogonalLoop=1;strokeWidth=1;dashed=1;fontSize=14;rounded=0;" edge="1" parent="1">
          <mxGeometry width="60" height="60" relative="1" as="geometry">
            <mxPoint x="730" y="790" as="sourcePoint" />
            <mxPoint x="480" y="790" as="targetPoint" />
          </mxGeometry>
        </mxCell>
        <mxCell id="m_yIS0kcz00EE0Y5XQm6-39" value="&lt;font style=&quot;font-size: 18px;&quot;&gt;Payment Acknowledgement&lt;/font&gt;" style="text;html=1;strokeColor=none;fillColor=none;align=center;verticalAlign=middle;whiteSpace=wrap;rounded=0;" vertex="1" parent="1">
          <mxGeometry x="510" y="750" width="210" height="30" as="geometry" />
        </mxCell>
        <mxCell id="m_yIS0kcz00EE0Y5XQm6-40" value="" style="curved=1;endArrow=classic;html=1;rounded=0;entryX=1.1;entryY=0.629;entryDx=0;entryDy=0;entryPerimeter=0;" edge="1" parent="1">
          <mxGeometry width="50" height="50" relative="1" as="geometry">
            <mxPoint x="750" y="840" as="sourcePoint" />
            <mxPoint x="752" y="869" as="targetPoint" />
            <Array as="points">
              <mxPoint x="770" y="820" />
              <mxPoint x="800" y="820" />
              <mxPoint x="810" y="820" />
              <mxPoint x="830" y="820" />
              <mxPoint x="860" y="840" />
            </Array>
          </mxGeometry>
        </mxCell>
        <mxCell id="m_yIS0kcz00EE0Y5XQm6-41" value="&lt;font style=&quot;font-size: 14px;&quot;&gt;rechargeCard()&lt;/font&gt;" style="text;html=1;strokeColor=none;fillColor=none;align=center;verticalAlign=middle;whiteSpace=wrap;rounded=0;" vertex="1" parent="1">
          <mxGeometry x="850" y="800" width="80" height="10" as="geometry" />
        </mxCell>
        <mxCell id="m_yIS0kcz00EE0Y5XQm6-42" value="" style="html=1;labelBackgroundColor=#ffffff;startArrow=none;startFill=0;startSize=6;endArrow=classic;endFill=1;endSize=6;jettySize=auto;orthogonalLoop=1;strokeWidth=1;dashed=1;fontSize=14;rounded=0;" edge="1" parent="1">
          <mxGeometry width="60" height="60" relative="1" as="geometry">
            <mxPoint x="730" y="910" as="sourcePoint" />
            <mxPoint x="480" y="910" as="targetPoint" />
          </mxGeometry>
        </mxCell>
        <mxCell id="m_yIS0kcz00EE0Y5XQm6-43" value="&lt;font style=&quot;font-size: 18px;&quot;&gt;Confirmation Message&lt;/font&gt;" style="text;html=1;strokeColor=none;fillColor=none;align=center;verticalAlign=middle;whiteSpace=wrap;rounded=0;" vertex="1" parent="1">
          <mxGeometry x="510" y="870" width="210" height="30" as="geometry" />
        </mxCell>
        <mxCell id="m_yIS0kcz00EE0Y5XQm6-44" value="" style="endArrow=classic;html=1;rounded=0;entryX=-0.15;entryY=0.06;entryDx=0;entryDy=0;entryPerimeter=0;" edge="1" parent="1">
          <mxGeometry width="50" height="50" relative="1" as="geometry">
            <mxPoint x="750" y="931" as="sourcePoint" />
            <mxPoint x="997" y="930" as="targetPoint" />
          </mxGeometry>
        </mxCell>
        <mxCell id="m_yIS0kcz00EE0Y5XQm6-48" value="&lt;font style=&quot;font-size: 18px;&quot;&gt;Acknowledgement&lt;/font&gt;" style="text;html=1;strokeColor=none;fillColor=none;align=center;verticalAlign=middle;whiteSpace=wrap;rounded=0;" vertex="1" parent="1">
          <mxGeometry x="775" y="940" width="210" height="30" as="geometry" />
        </mxCell>
        <mxCell id="m_yIS0kcz00EE0Y5XQm6-49" value="&lt;font style=&quot;font-size: 18px;&quot;&gt;Update Details&lt;/font&gt;" style="text;html=1;strokeColor=none;fillColor=none;align=center;verticalAlign=middle;whiteSpace=wrap;rounded=0;" vertex="1" parent="1">
          <mxGeometry x="775" y="900" width="210" height="30" as="geometry" />
        </mxCell>
        <mxCell id="m_yIS0kcz00EE0Y5XQm6-50" value="" style="html=1;labelBackgroundColor=#ffffff;startArrow=none;startFill=0;startSize=6;endArrow=classic;endFill=1;endSize=6;jettySize=auto;orthogonalLoop=1;strokeWidth=1;dashed=1;fontSize=14;rounded=0;" edge="1" parent="1">
          <mxGeometry width="60" height="60" relative="1" as="geometry">
            <mxPoint x="1000" y="980" as="sourcePoint" />
            <mxPoint x="750" y="980" as="targetPoint" />
          </mxGeometry>
        </mxCell>
        <mxCell id="m_yIS0kcz00EE0Y5XQm6-51" value="" style="endArrow=classic;html=1;rounded=0;entryX=-0.15;entryY=0.06;entryDx=0;entryDy=0;entryPerimeter=0;" edge="1" parent="1">
          <mxGeometry width="50" height="50" relative="1" as="geometry">
            <mxPoint x="481.5" y="1011" as="sourcePoint" />
            <mxPoint x="728.5" y="1010" as="targetPoint" />
          </mxGeometry>
        </mxCell>
        <mxCell id="m_yIS0kcz00EE0Y5XQm6-52" value="&lt;font style=&quot;font-size: 18px;&quot;&gt;Request to Print Receipt&lt;/font&gt;" style="text;html=1;strokeColor=none;fillColor=none;align=center;verticalAlign=middle;whiteSpace=wrap;rounded=0;" vertex="1" parent="1">
          <mxGeometry x="500" y="970" width="210" height="30" as="geometry" />
        </mxCell>
        <mxCell id="m_yIS0kcz00EE0Y5XQm6-54" value="&lt;font style=&quot;font-size: 18px;&quot;&gt;Dispenses Receipt&lt;/font&gt;" style="text;html=1;strokeColor=none;fillColor=none;align=center;verticalAlign=middle;whiteSpace=wrap;rounded=0;" vertex="1" parent="1">
          <mxGeometry x="500" y="1100" width="210" height="30" as="geometry" />
        </mxCell>
        <mxCell id="m_yIS0kcz00EE0Y5XQm6-55" value="" style="html=1;labelBackgroundColor=#ffffff;startArrow=none;startFill=0;startSize=6;endArrow=classic;endFill=1;endSize=6;jettySize=auto;orthogonalLoop=1;strokeWidth=1;dashed=1;fontSize=14;rounded=0;" edge="1" parent="1">
          <mxGeometry width="60" height="60" relative="1" as="geometry">
            <mxPoint x="730" y="1140" as="sourcePoint" />
            <mxPoint x="480" y="1140" as="targetPoint" />
          </mxGeometry>
        </mxCell>
        <mxCell id="m_yIS0kcz00EE0Y5XQm6-56" value="" style="curved=1;endArrow=classic;html=1;rounded=0;entryX=1.1;entryY=0.629;entryDx=0;entryDy=0;entryPerimeter=0;" edge="1" parent="1">
          <mxGeometry width="50" height="50" relative="1" as="geometry">
            <mxPoint x="750" y="1080" as="sourcePoint" />
            <mxPoint x="752" y="1109" as="targetPoint" />
            <Array as="points">
              <mxPoint x="770" y="1060" />
              <mxPoint x="800" y="1060" />
              <mxPoint x="810" y="1060" />
              <mxPoint x="830" y="1060" />
              <mxPoint x="860" y="1080" />
            </Array>
          </mxGeometry>
        </mxCell>
        <mxCell id="m_yIS0kcz00EE0Y5XQm6-57" value="&lt;font style=&quot;font-size: 14px;&quot;&gt;printReceipts()&lt;/font&gt;" style="text;html=1;strokeColor=none;fillColor=none;align=center;verticalAlign=middle;whiteSpace=wrap;rounded=0;" vertex="1" parent="1">
          <mxGeometry x="860" y="1060" width="80" height="10" as="geometry" />
        </mxCell>
        <mxCell id="m_yIS0kcz00EE0Y5XQm6-58" value="" style="endArrow=none;html=1;rounded=0;" edge="1" parent="1">
          <mxGeometry width="50" height="50" relative="1" as="geometry">
            <mxPoint x="170" y="130" as="sourcePoint" />
            <mxPoint x="230" y="130" as="targetPoint" />
          </mxGeometry>
        </mxCell>
        <mxCell id="m_yIS0kcz00EE0Y5XQm6-59" value="" style="endArrow=none;html=1;rounded=0;entryX=1;entryY=1;entryDx=0;entryDy=0;" edge="1" parent="1">
          <mxGeometry width="50" height="50" relative="1" as="geometry">
            <mxPoint x="435" y="130" as="sourcePoint" />
            <mxPoint x="505" y="130" as="targetPoint" />
          </mxGeometry>
        </mxCell>
        <mxCell id="m_yIS0kcz00EE0Y5XQm6-60" value="" style="endArrow=none;html=1;rounded=0;entryX=1;entryY=1;entryDx=0;entryDy=0;" edge="1" parent="1">
          <mxGeometry width="50" height="50" relative="1" as="geometry">
            <mxPoint x="705" y="134" as="sourcePoint" />
            <mxPoint x="775" y="134" as="targetPoint" />
          </mxGeometry>
        </mxCell>
        <mxCell id="m_yIS0kcz00EE0Y5XQm6-61" value="" style="endArrow=none;html=1;rounded=0;entryX=1;entryY=1;entryDx=0;entryDy=0;" edge="1" parent="1">
          <mxGeometry width="50" height="50" relative="1" as="geometry">
            <mxPoint x="965" y="134" as="sourcePoint" />
            <mxPoint x="1035" y="134" as="targetPoint" />
          </mxGeometry>
        </mxCell>
      </root>
    </mxGraphModel>
  </diagram>
</mxfile>
